<svg xmlns="http://www.w3.org/2000/svg" xmlns:v="https://svgstorm.com"
viewBox = "0 0 768 210"
width="768"
height="210">
<g fill="None" fill-opacity="0.0" stroke="#000000" stroke-opacity="0.00" stroke-width="0.3"><path d="
M 0.00 207.00 
C 28.97 138.50 58.62 70.27 86.00 1.00
C 99.36 -3.44 106.10 4.74 108.93 15.07 C 111.75 25.40 116.67 31.66 119.92 41.08 C 123.17 50.49 127.13 58.34 130.78 67.22 C 134.43 76.11 137.69 84.84 141.32 93.68 C 144.95 102.51 148.55 110.97 152.31 119.69 C 156.06 128.42 159.50 137.28 162.93 146.07 C 166.35 154.87 170.50 163.28 173.92 172.08 C 177.34 180.87 181.09 189.73 185.00 198.00
C 211.75 131.68 240.47 67.41 267.00 1.00
C 279.15 -2.66 286.15 3.38 288.93 13.07 C 291.70 22.77 295.81 29.17 298.98 38.02 C 302.14 46.88 306.06 54.22 309.32 62.68 C 312.58 71.14 315.85 78.68 318.98 87.02 C 322.10 95.37 326.79 102.78 329.77 111.23 C 332.75 119.68 336.41 128.01 339.78 136.22 C 343.14 144.44 346.26 152.05 349.78 160.22 C 353.29 168.39 356.37 176.96 359.93 185.07 C 363.48 193.19 366.91 201.60 370.00 210.00
L 604.00 210.00
C 601.69 196.03 612.60 185.35 620.77 175.77 C 628.94 166.19 635.35 155.46 644.00 147.00
C 644.25 146.75 644.77 146.26 645.00 146.00
C 661.55 127.28 674.08 105.43 690.92 86.92 C 707.76 68.41 720.44 45.20 738.00 28.00
C 738.25 27.75 738.77 27.26 739.00 27.00
C 742.33 23.24 744.30 18.14 748.00 15.00
C 703.61 15.51 657.16 12.54 612.00 14.00
C 612.00 9.67 612.00 5.33 612.00 1.00
C 663.33 1.00 714.67 1.00 766.00 1.00
C 770.27 3.99 767.63 14.42 762.75 18.75 C 757.88 23.09 759.13 25.74 752.25 32.25 C 745.36 38.75 739.38 52.14 731.00 58.00
C 730.77 58.16 731.00 59.00 731.00 59.00
C 725.75 69.74 714.77 77.59 708.25 87.25 C 701.73 96.90 693.13 107.51 685.25 116.25 C 677.36 124.98 671.76 138.16 662.00 145.00
C 661.77 145.16 662.00 146.00 662.00 146.00
C 660.74 148.57 657.87 151.17 656.00 153.00
C 655.75 153.25 655.17 153.73 655.00 154.00
C 645.26 169.33 631.77 182.65 621.00 198.00
C 670.00 198.00 719.00 198.00 768.00 198.00
L 768.00 0.00
L 600.00 0.00
C 600.00 0.50 600.00 1.00 600.00 1.00
C 605.13 2.87 597.10 16.44 596.07 22.07 C 595.05 27.70 590.77 37.47 589.02 44.02 C 587.28 50.58 584.37 59.17 582.07 66.07 C 579.77 72.98 577.42 80.89 575.02 88.02 C 572.63 95.16 570.38 102.77 568.02 110.02 C 565.67 117.27 563.28 124.69 561.01 132.01 C 558.73 139.32 556.24 146.66 554.02 154.02 C 551.81 161.39 548.50 168.39 547.00 176.00
C 536.45 173.36 535.79 162.66 528.75 154.25 C 521.71 145.85 529.84 134.11 532.31 124.31 C 534.77 114.50 539.26 103.38 542.31 93.31 C 545.35 83.23 549.02 72.51 552.31 62.31 C 555.59 52.10 558.81 41.54 562.31 31.31 C 565.80 21.07 568.58 10.33 572.00 0.00
L 0.00 0.00
L 0.00 207.00
M 536.00 199.00 
C 538.03 206.97 521.75 204.72 516.00 203.00
C 504.55 199.57 502.49 184.21 495.75 175.25 C 489.00 166.29 485.04 153.79 478.68 144.32 C 472.32 134.85 467.25 122.85 460.00 114.00
C 455.30 123.29 449.46 131.55 444.75 140.75 C 440.03 149.94 433.91 159.07 429.23 168.23 C 424.55 177.39 418.04 186.60 413.75 195.75 C 409.45 204.90 388.44 209.29 383.08 199.92 C 377.72 190.56 376.30 178.32 371.69 168.31 C 367.09 158.29 364.95 147.68 360.69 137.31 C 356.44 126.94 353.40 116.32 349.22 105.78 C 345.04 95.23 342.19 84.82 338.07 73.93 C 333.96 63.03 330.71 53.89 326.68 42.32 C 322.65 30.75 319.34 23.69 315.08 10.92 C 310.81 -1.84 335.44 -0.56 345.00 2.00
C 350.59 20.13 357.18 38.12 363.93 56.07 C 370.67 74.03 376.29 93.13 382.99 111.01 C 389.69 128.89 395.71 148.21 404.00 164.00
C 412.83 150.15 416.52 136.25 426.77 122.77 C 437.02 109.29 436.51 91.35 455.00 86.00 C 473.49 80.65 483.64 100.50 489.93 115.07 C 496.21 129.65 506.66 142.32 513.31 156.70 C 519.95 171.07 529.52 184.49 536.00 199.00 Z"/>
</g>
<g fill="None" fill-opacity="0.0" stroke="#FEFEFE" stroke-opacity="0.92" stroke-width="0.3"><path d="
M 600.00 1.00 
C 599.57 1.80 596.29 1.13 595.00 1.00
C 593.71 0.87 591.51 1.66 591.00 0.00
L 580.00 0.00
C 578.67 1.47 574.26 1.71 573.00 0.00
L 572.00 0.00
C 568.58 10.33 565.80 21.07 562.31 31.31 C 558.81 41.54 555.59 52.10 552.31 62.31 C 549.02 72.51 545.35 83.23 542.31 93.31 C 539.26 103.38 534.77 114.50 532.31 124.31 C 529.84 134.11 521.71 145.85 528.75 154.25 C 535.79 162.66 536.45 173.36 547.00 176.00
C 548.50 168.39 551.81 161.39 554.02 154.02 C 556.24 146.66 558.73 139.32 561.01 132.01 C 563.28 124.69 565.67 117.27 568.02 110.02 C 570.38 102.77 572.63 95.16 575.02 88.02 C 577.42 80.89 579.77 72.98 582.07 66.07 C 584.37 59.17 587.28 50.58 589.02 44.02 C 590.77 37.47 595.05 27.70 596.07 22.07 C 597.10 16.44 605.13 2.87 600.00 1.00 Z"/>
</g>
<g fill="None" fill-opacity="0.0" stroke="#FEFEFE" stroke-opacity="0.69" stroke-width="0.3"><path d="
M 580.00 0.00 
L 573.00 0.00
C 574.26 1.71 578.67 1.47 580.00 0.00 Z"/>
</g>
<g fill="None" fill-opacity="0.0" stroke="#FFFFFF" stroke-opacity="0.62" stroke-width="0.3"><path d="
M 595.00 1.00 
C 594.91 0.98 595.00 0.00 595.00 0.00
L 591.00 0.00
C 591.51 1.66 593.71 0.87 595.00 1.00 Z"/>
</g>
<g fill="None" fill-opacity="0.0" stroke="#FEFEFE" stroke-opacity="0.33" stroke-width="0.3"><path d="
M 595.00 1.00 
C 596.29 1.13 599.57 1.80 600.00 1.00
C 600.00 1.00 600.00 0.50 600.00 0.00
L 595.00 0.00
C 595.00 0.00 594.91 0.98 595.00 1.00 Z"/>
</g>
<g fill="None" fill-opacity="0.0" stroke="#FEFEFE" stroke-opacity="0.87" stroke-width="0.3"><path d="
M 0.00 207.00 
L 0.00 210.00
L 16.00 210.00
C 24.84 187.90 34.69 166.32 43.00 144.00
C 77.33 144.00 111.67 144.00 146.00 144.00
C 153.74 166.32 164.49 187.69 172.00 210.00
L 197.00 210.00
C 199.51 199.30 205.14 193.15 208.31 182.31 C 211.47 171.46 216.99 167.06 219.77 154.77 C 222.56 142.48 235.26 143.02 248.00 144.00 C 260.74 144.98 274.14 143.49 287.00 144.00 C 299.86 144.51 313.10 143.62 326.00 144.00
C 335.28 165.80 344.40 187.87 353.00 210.00
L 370.00 210.00
C 366.91 201.60 363.48 193.19 359.93 185.07 C 356.37 176.96 353.29 168.39 349.78 160.22 C 346.26 152.05 343.14 144.44 339.78 136.22 C 336.41 128.01 332.75 119.68 329.77 111.23 C 326.79 102.78 322.10 95.37 318.98 87.02 C 315.85 78.68 312.58 71.14 309.32 62.68 C 306.06 54.22 302.14 46.88 298.98 38.02 C 295.81 29.17 291.70 22.77 288.93 13.07 C 286.15 3.38 279.15 -2.66 267.00 1.00
C 240.47 67.41 211.75 131.68 185.00 198.00
C 181.09 189.73 177.34 180.87 173.92 172.08 C 170.50 163.28 166.35 154.87 162.93 146.07 C 159.50 137.28 156.06 128.42 152.31 119.69 C 148.55 110.97 144.95 102.51 141.32 93.68 C 137.69 84.84 134.43 76.11 130.78 67.22 C 127.13 58.34 123.17 50.49 119.92 41.08 C 116.67 31.66 111.75 25.40 108.93 15.07 C 106.10 4.74 99.36 -3.44 86.00 1.00
C 58.62 70.27 28.97 138.50 0.00 207.00
M 277.00 15.00 
C 277.73 15.73 276.29 17.67 275.29 16.63 C 274.30 15.60 276.45 14.44 277.00 15.00
M 139.00 127.00 
C 139.81 128.34 142.22 130.06 142.00 133.00
C 110.09 132.34 77.47 134.33 46.00 132.00
C 49.27 130.63 46.99 125.33 50.00 127.00
C 53.55 107.82 67.50 90.74 72.92 71.92 C 78.35 53.11 88.96 34.96 96.00 17.00
C 109.14 54.00 124.67 90.36 139.00 127.00
M 320.00 128.00 
C 321.16 130.14 323.09 130.22 323.00 133.00
C 291.00 133.00 259.00 133.00 227.00 133.00
C 226.51 131.07 227.74 128.63 230.00 129.00
C 240.40 112.58 243.76 91.14 252.77 73.77 C 261.79 56.40 267.15 35.87 275.00 18.00
C 292.23 53.02 304.51 91.52 320.00 128.00
M 183.00 198.00 
C 188.09 198.84 183.09 202.84 183.00 198.00 Z"/>
</g>
<g fill="None" fill-opacity="0.0" stroke="#FEFEFE" stroke-opacity="0.92" stroke-width="0.3"><path d="
M 516.00 203.00 
C 520.58 203.54 529.10 200.52 535.00 202.00
C 535.11 201.00 534.53 199.27 536.00 199.00
C 529.52 184.49 519.95 171.07 513.31 156.70 C 506.66 142.32 496.21 129.65 489.93 115.07 C 483.64 100.50 473.49 80.65 455.00 86.00 C 436.51 91.35 437.02 109.29 426.77 122.77 C 416.52 136.25 412.83 150.15 404.00 164.00
C 395.71 148.21 389.69 128.89 382.99 111.01 C 376.29 93.13 370.67 74.03 363.93 56.07 C 357.18 38.12 350.59 20.13 345.00 2.00
C 335.44 -0.56 310.81 -1.84 315.08 10.92 C 319.34 23.69 322.65 30.75 326.68 42.32 C 330.71 53.89 333.96 63.03 338.07 73.93 C 342.19 84.82 345.04 95.23 349.22 105.78 C 353.40 116.32 356.44 126.94 360.69 137.31 C 364.95 147.68 367.09 158.29 371.69 168.31 C 376.30 178.32 377.72 190.56 383.08 199.92 C 388.44 209.29 409.45 204.90 413.75 195.75 C 418.04 186.60 424.55 177.39 429.23 168.23 C 433.91 159.07 440.03 149.94 444.75 140.75 C 449.46 131.55 455.30 123.29 460.00 114.00
C 467.25 122.85 472.32 134.85 478.68 144.32 C 485.04 153.79 489.00 166.29 495.75 175.25 C 502.49 184.21 504.55 199.57 516.00 203.00
M 405.00 164.00 
C 404.95 169.70 399.91 166.16 405.00 164.00 Z"/>
</g>
<g fill="None" fill-opacity="0.0" stroke="#FEFEFE" stroke-opacity="0.40" stroke-width="0.3"><path d="
M 748.00 15.00 
C 748.13 14.89 753.10 15.67 751.00 12.00
C 705.09 12.67 658.46 10.67 613.00 13.00
C 613.00 9.33 613.00 5.67 613.00 2.00
C 663.83 1.33 715.99 3.33 766.00 1.00
C 714.67 1.00 663.33 1.00 612.00 1.00
C 612.00 5.33 612.00 9.67 612.00 14.00
C 657.16 12.54 703.61 15.51 748.00 15.00 Z"/>
</g>
<g fill="None" fill-opacity="0.0" stroke="#FEFEFE" stroke-opacity="0.90" stroke-width="0.3"><path d="
M 748.00 15.00 
C 744.30 18.14 742.33 23.24 739.00 27.00
C 739.04 26.93 736.26 32.29 738.00 28.00
C 720.44 45.20 707.76 68.41 690.92 86.92 C 674.08 105.43 661.55 127.28 645.00 146.00
C 645.04 145.93 642.26 151.30 644.00 147.00
C 635.35 155.46 628.94 166.19 620.77 175.77 C 612.60 185.35 601.69 196.03 604.00 210.00
L 768.00 210.00
L 768.00 198.00
C 719.00 198.00 670.00 198.00 621.00 198.00
C 631.77 182.65 645.26 169.33 655.00 154.00
C 655.01 153.98 657.72 148.77 656.00 153.00
C 657.87 151.17 660.74 148.57 662.00 146.00
C 659.28 147.27 660.14 144.43 662.00 145.00
C 671.76 138.16 677.36 124.98 685.25 116.25 C 693.13 107.51 701.73 96.90 708.25 87.25 C 714.77 77.59 725.75 69.74 731.00 59.00
C 730.04 59.52 729.20 60.19 728.00 60.00
C 728.52 59.17 730.25 56.09 731.00 58.00
C 739.38 52.14 745.36 38.75 752.25 32.25 C 759.13 25.74 757.88 23.09 762.75 18.75 C 767.63 14.42 770.27 3.99 766.00 1.00
C 715.99 3.33 663.83 1.33 613.00 2.00
C 613.00 5.67 613.00 9.33 613.00 13.00
C 658.46 10.67 705.09 12.67 751.00 12.00
C 753.10 15.67 748.13 14.89 748.00 15.00 Z"/>
</g>
<g fill="None" fill-opacity="0.0" stroke="#FFFFFF" stroke-opacity="0.31" stroke-width="0.3"><path d="
M 277.00 15.00 
C 276.45 14.44 274.30 15.60 275.29 16.63 C 276.29 17.67 277.73 15.73 277.00 15.00 Z"/>
</g>
<g fill="None" fill-opacity="0.0" stroke="#000000" stroke-opacity="0.00" stroke-width="0.3"><path d="
M 50.00 127.00 
C 49.74 128.43 49.08 129.49 49.00 131.00
C 79.33 131.00 109.67 131.00 140.00 131.00
C 140.37 129.46 138.57 128.60 139.00 127.00
C 124.67 90.36 109.14 54.00 96.00 17.00
C 88.96 34.96 78.35 53.11 72.92 71.92 C 67.50 90.74 53.55 107.82 50.00 127.00 Z"/>
</g>
<g fill="None" fill-opacity="0.0" stroke="#000000" stroke-opacity="0.00" stroke-width="0.3"><path d="
M 230.00 129.00 
C 230.11 133.00 242.83 130.53 249.00 131.00 C 255.17 131.47 265.85 130.78 273.00 131.00 C 280.15 131.22 289.44 130.89 297.00 131.00 C 304.56 131.11 313.33 130.91 321.00 131.00
C 320.43 130.06 319.85 129.18 320.00 128.00
C 304.51 91.52 292.23 53.02 275.00 18.00
C 267.15 35.87 261.79 56.40 252.77 73.77 C 243.76 91.14 240.40 112.58 230.00 129.00 Z"/>
</g>
<g fill="None" fill-opacity="0.0" stroke="#FEFEFE" stroke-opacity="0.33" stroke-width="0.3"><path d="
M 738.00 28.00 
C 736.26 32.29 739.04 26.93 739.00 27.00
C 738.77 27.26 738.25 27.75 738.00 28.00 Z"/>
</g>
<g fill="None" fill-opacity="0.0" stroke="#FEFEFE" stroke-opacity="0.53" stroke-width="0.3"><path d="
M 731.00 59.00 
C 731.00 59.00 730.77 58.16 731.00 58.00
C 730.25 56.09 728.52 59.17 728.00 60.00
C 729.20 60.19 730.04 59.52 731.00 59.00 Z"/>
</g>
<g fill="None" fill-opacity="0.0" stroke="#FEFEFE" stroke-opacity="0.41" stroke-width="0.3"><path d="
M 139.00 127.00 
C 138.57 128.60 140.37 129.46 140.00 131.00
C 109.67 131.00 79.33 131.00 49.00 131.00
C 49.08 129.49 49.74 128.43 50.00 127.00
C 46.99 125.33 49.27 130.63 46.00 132.00
C 77.47 134.33 110.09 132.34 142.00 133.00
C 142.22 130.06 139.81 128.34 139.00 127.00 Z"/>
</g>
<g fill="None" fill-opacity="0.0" stroke="#FEFEFE" stroke-opacity="0.42" stroke-width="0.3"><path d="
M 230.00 129.00 
C 227.74 128.63 226.51 131.07 227.00 133.00
C 259.00 133.00 291.00 133.00 323.00 133.00
C 323.09 130.22 321.16 130.14 320.00 128.00
C 319.85 129.18 320.43 130.06 321.00 131.00
C 313.33 130.91 304.56 131.11 297.00 131.00 C 289.44 130.89 280.15 131.22 273.00 131.00 C 265.85 130.78 255.17 131.47 249.00 131.00 C 242.83 130.53 230.11 133.00 230.00 129.00 Z"/>
</g>
<g fill="None" fill-opacity="0.0" stroke="#000000" stroke-opacity="0.00" stroke-width="0.3"><path d="
M 16.00 210.00 
L 172.00 210.00
C 164.49 187.69 153.74 166.32 146.00 144.00
C 111.67 144.00 77.33 144.00 43.00 144.00
C 34.69 166.32 24.84 187.90 16.00 210.00 Z"/>
</g>
<g fill="None" fill-opacity="0.0" stroke="#000000" stroke-opacity="0.00" stroke-width="0.3"><path d="
M 197.00 210.00 
L 353.00 210.00
C 344.40 187.87 335.28 165.80 326.00 144.00
C 313.10 143.62 299.86 144.51 287.00 144.00 C 274.14 143.49 260.74 144.98 248.00 144.00 C 235.26 143.02 222.56 142.48 219.77 154.77 C 216.99 167.06 211.47 171.46 208.31 182.31 C 205.14 193.15 199.51 199.30 197.00 210.00 Z"/>
</g>
<g fill="None" fill-opacity="0.0" stroke="#FFFFFF" stroke-opacity="0.45" stroke-width="0.3"><path d="
M 662.00 146.00 
C 662.00 146.00 661.77 145.16 662.00 145.00
C 660.14 144.43 659.28 147.27 662.00 146.00 Z"/>
</g>
<g fill="None" fill-opacity="0.0" stroke="#FEFEFE" stroke-opacity="0.32" stroke-width="0.3"><path d="
M 644.00 147.00 
C 642.26 151.30 645.04 145.93 645.00 146.00
C 644.77 146.26 644.25 146.75 644.00 147.00 Z"/>
</g>
<g fill="None" fill-opacity="0.0" stroke="#FEFEFE" stroke-opacity="0.43" stroke-width="0.3"><path d="
M 655.00 154.00 
C 655.17 153.73 655.75 153.25 656.00 153.00
C 657.72 148.77 655.01 153.98 655.00 154.00 Z"/>
</g>
<g fill="None" fill-opacity="0.0" stroke="#FEFEFE" stroke-opacity="0.55" stroke-width="0.3"><path d="
M 405.00 164.00 
C 399.91 166.16 404.95 169.70 405.00 164.00 Z"/>
</g>
<g fill="None" fill-opacity="0.0" stroke="#FEFEFE" stroke-opacity="0.62" stroke-width="0.3"><path d="
M 183.00 198.00 
C 183.09 202.84 188.09 198.84 183.00 198.00 Z"/>
</g>
<g fill="None" fill-opacity="0.0" stroke="#FEFEFE" stroke-opacity="0.39" stroke-width="0.3"><path d="
M 516.00 203.00 
C 521.75 204.72 538.03 206.97 536.00 199.00
C 534.53 199.27 535.11 201.00 535.00 202.00
C 529.10 200.52 520.58 203.54 516.00 203.00 Z"/>
</g>
<g fill="#000000" fill-opacity="0.00" stroke="None">
<path d="
M 0.00 207.00 
C 28.97 138.50 58.62 70.27 86.00 1.00
C 99.36 -3.44 106.10 4.74 108.93 15.07 C 111.75 25.40 116.67 31.66 119.92 41.08 C 123.17 50.49 127.13 58.34 130.78 67.22 C 134.43 76.11 137.69 84.84 141.32 93.68 C 144.95 102.51 148.55 110.97 152.31 119.69 C 156.06 128.42 159.50 137.28 162.93 146.07 C 166.35 154.87 170.50 163.28 173.92 172.08 C 177.34 180.87 181.09 189.73 185.00 198.00
C 211.75 131.68 240.47 67.41 267.00 1.00
C 279.15 -2.66 286.15 3.38 288.93 13.07 C 291.70 22.77 295.81 29.17 298.98 38.02 C 302.14 46.88 306.06 54.22 309.32 62.68 C 312.58 71.14 315.85 78.68 318.98 87.02 C 322.10 95.37 326.79 102.78 329.77 111.23 C 332.75 119.68 336.41 128.01 339.78 136.22 C 343.14 144.44 346.26 152.05 349.78 160.22 C 353.29 168.39 356.37 176.96 359.93 185.07 C 363.48 193.19 366.91 201.60 370.00 210.00
L 604.00 210.00
C 601.69 196.03 612.60 185.35 620.77 175.77 C 628.94 166.19 635.35 155.46 644.00 147.00
C 644.25 146.75 644.77 146.26 645.00 146.00
C 661.55 127.28 674.08 105.43 690.92 86.92 C 707.76 68.41 720.44 45.20 738.00 28.00
C 738.25 27.75 738.77 27.26 739.00 27.00
C 742.33 23.24 744.30 18.14 748.00 15.00
C 703.61 15.51 657.16 12.54 612.00 14.00
C 612.00 9.67 612.00 5.33 612.00 1.00
C 663.33 1.00 714.67 1.00 766.00 1.00
C 770.27 3.99 767.63 14.42 762.75 18.75 C 757.88 23.09 759.13 25.74 752.25 32.25 C 745.36 38.75 739.38 52.14 731.00 58.00
C 730.77 58.16 731.00 59.00 731.00 59.00
C 725.75 69.74 714.77 77.59 708.25 87.25 C 701.73 96.90 693.13 107.51 685.25 116.25 C 677.36 124.98 671.76 138.16 662.00 145.00
C 661.77 145.16 662.00 146.00 662.00 146.00
C 660.74 148.57 657.87 151.17 656.00 153.00
C 655.75 153.25 655.17 153.73 655.00 154.00
C 645.26 169.33 631.77 182.65 621.00 198.00
C 670.00 198.00 719.00 198.00 768.00 198.00
L 768.00 0.00
L 600.00 0.00
C 600.00 0.50 600.00 1.00 600.00 1.00
C 605.13 2.87 597.10 16.44 596.07 22.07 C 595.05 27.70 590.77 37.47 589.02 44.02 C 587.28 50.58 584.37 59.17 582.07 66.07 C 579.77 72.98 577.42 80.89 575.02 88.02 C 572.63 95.16 570.38 102.77 568.02 110.02 C 565.67 117.27 563.28 124.69 561.01 132.01 C 558.73 139.32 556.24 146.66 554.02 154.02 C 551.81 161.39 548.50 168.39 547.00 176.00
C 536.45 173.36 535.79 162.66 528.75 154.25 C 521.71 145.85 529.84 134.11 532.31 124.31 C 534.77 114.50 539.26 103.38 542.31 93.31 C 545.35 83.23 549.02 72.51 552.31 62.31 C 555.59 52.10 558.81 41.54 562.31 31.31 C 565.80 21.07 568.58 10.33 572.00 0.00
L 0.00 0.00
L 0.00 207.00
M 536.00 199.00 
C 538.03 206.97 521.75 204.72 516.00 203.00
C 504.55 199.57 502.49 184.21 495.75 175.25 C 489.00 166.29 485.04 153.79 478.68 144.32 C 472.32 134.85 467.25 122.85 460.00 114.00
C 455.30 123.29 449.46 131.55 444.75 140.75 C 440.03 149.94 433.91 159.07 429.23 168.23 C 424.55 177.39 418.04 186.60 413.75 195.75 C 409.45 204.90 388.44 209.29 383.08 199.92 C 377.72 190.56 376.30 178.32 371.69 168.31 C 367.09 158.29 364.95 147.68 360.69 137.31 C 356.44 126.94 353.40 116.32 349.22 105.78 C 345.04 95.23 342.19 84.82 338.07 73.93 C 333.96 63.03 330.71 53.89 326.68 42.32 C 322.65 30.75 319.34 23.69 315.08 10.92 C 310.81 -1.84 335.44 -0.56 345.00 2.00
C 350.59 20.13 357.18 38.12 363.93 56.07 C 370.67 74.03 376.29 93.13 382.99 111.01 C 389.69 128.89 395.71 148.21 404.00 164.00
C 412.83 150.15 416.52 136.25 426.77 122.77 C 437.02 109.29 436.51 91.35 455.00 86.00 C 473.49 80.65 483.64 100.50 489.93 115.07 C 496.21 129.65 506.66 142.32 513.31 156.70 C 519.95 171.07 529.52 184.49 536.00 199.00 Z"/>
</g>
<g fill="#FEFEFE" fill-opacity="0.92" stroke="None">
<path d="
M 600.00 1.00 
C 599.57 1.80 596.29 1.13 595.00 1.00
C 593.71 0.87 591.51 1.66 591.00 0.00
L 580.00 0.00
C 578.67 1.47 574.26 1.71 573.00 0.00
L 572.00 0.00
C 568.58 10.33 565.80 21.07 562.31 31.31 C 558.81 41.54 555.59 52.10 552.31 62.31 C 549.02 72.51 545.35 83.23 542.31 93.31 C 539.26 103.38 534.77 114.50 532.31 124.31 C 529.84 134.11 521.71 145.85 528.75 154.25 C 535.79 162.66 536.45 173.36 547.00 176.00
C 548.50 168.39 551.81 161.39 554.02 154.02 C 556.24 146.66 558.73 139.32 561.01 132.01 C 563.28 124.69 565.67 117.27 568.02 110.02 C 570.38 102.77 572.63 95.16 575.02 88.02 C 577.42 80.89 579.77 72.98 582.07 66.07 C 584.37 59.17 587.28 50.58 589.02 44.02 C 590.77 37.47 595.05 27.70 596.07 22.07 C 597.10 16.44 605.13 2.87 600.00 1.00 Z"/>
</g>
<g fill="#FEFEFE" fill-opacity="0.69" stroke="None">
<path d="
M 580.00 0.00 
L 573.00 0.00
C 574.26 1.71 578.67 1.47 580.00 0.00 Z"/>
</g>
<g fill="#FFFFFF" fill-opacity="0.62" stroke="None">
<path d="
M 595.00 1.00 
C 594.91 0.98 595.00 0.00 595.00 0.00
L 591.00 0.00
C 591.51 1.66 593.71 0.87 595.00 1.00 Z"/>
</g>
<g fill="#FEFEFE" fill-opacity="0.33" stroke="None">
<path d="
M 595.00 1.00 
C 596.29 1.13 599.57 1.80 600.00 1.00
C 600.00 1.00 600.00 0.50 600.00 0.00
L 595.00 0.00
C 595.00 0.00 594.91 0.98 595.00 1.00 Z"/>
</g>
<g fill="#FEFEFE" fill-opacity="0.87" stroke="None">
<path d="
M 0.00 207.00 
L 0.00 210.00
L 16.00 210.00
C 24.84 187.90 34.69 166.32 43.00 144.00
C 77.33 144.00 111.67 144.00 146.00 144.00
C 153.74 166.32 164.49 187.69 172.00 210.00
L 197.00 210.00
C 199.51 199.30 205.14 193.15 208.31 182.31 C 211.47 171.46 216.99 167.06 219.77 154.77 C 222.56 142.48 235.26 143.02 248.00 144.00 C 260.74 144.98 274.14 143.49 287.00 144.00 C 299.86 144.51 313.10 143.62 326.00 144.00
C 335.28 165.80 344.40 187.87 353.00 210.00
L 370.00 210.00
C 366.91 201.60 363.48 193.19 359.93 185.07 C 356.37 176.96 353.29 168.39 349.78 160.22 C 346.26 152.05 343.14 144.44 339.78 136.22 C 336.41 128.01 332.75 119.68 329.77 111.23 C 326.79 102.78 322.10 95.37 318.98 87.02 C 315.85 78.68 312.58 71.14 309.32 62.68 C 306.06 54.22 302.14 46.88 298.98 38.02 C 295.81 29.17 291.70 22.77 288.93 13.07 C 286.15 3.38 279.15 -2.66 267.00 1.00
C 240.47 67.41 211.75 131.68 185.00 198.00
C 181.09 189.73 177.34 180.87 173.92 172.08 C 170.50 163.28 166.35 154.87 162.93 146.07 C 159.50 137.28 156.06 128.42 152.31 119.69 C 148.55 110.97 144.95 102.51 141.32 93.68 C 137.69 84.84 134.43 76.11 130.78 67.22 C 127.13 58.34 123.17 50.49 119.92 41.08 C 116.67 31.66 111.75 25.40 108.93 15.07 C 106.10 4.74 99.36 -3.44 86.00 1.00
C 58.62 70.27 28.97 138.50 0.00 207.00
M 277.00 15.00 
C 277.73 15.73 276.29 17.67 275.29 16.63 C 274.30 15.60 276.45 14.44 277.00 15.00
M 139.00 127.00 
C 139.81 128.34 142.22 130.06 142.00 133.00
C 110.09 132.34 77.47 134.33 46.00 132.00
C 49.27 130.63 46.99 125.33 50.00 127.00
C 53.55 107.82 67.50 90.74 72.92 71.92 C 78.35 53.11 88.96 34.96 96.00 17.00
C 109.14 54.00 124.67 90.36 139.00 127.00
M 320.00 128.00 
C 321.16 130.14 323.09 130.22 323.00 133.00
C 291.00 133.00 259.00 133.00 227.00 133.00
C 226.51 131.07 227.74 128.63 230.00 129.00
C 240.40 112.58 243.76 91.14 252.77 73.77 C 261.79 56.40 267.15 35.87 275.00 18.00
C 292.23 53.02 304.51 91.52 320.00 128.00
M 183.00 198.00 
C 188.09 198.84 183.09 202.84 183.00 198.00 Z"/>
</g>
<g fill="#FEFEFE" fill-opacity="0.92" stroke="None">
<path d="
M 516.00 203.00 
C 520.58 203.54 529.10 200.52 535.00 202.00
C 535.11 201.00 534.53 199.27 536.00 199.00
C 529.52 184.49 519.95 171.07 513.31 156.70 C 506.66 142.32 496.21 129.65 489.93 115.07 C 483.64 100.50 473.49 80.65 455.00 86.00 C 436.51 91.35 437.02 109.29 426.77 122.77 C 416.52 136.25 412.83 150.15 404.00 164.00
C 395.71 148.21 389.69 128.89 382.99 111.01 C 376.29 93.13 370.67 74.03 363.93 56.07 C 357.18 38.12 350.59 20.13 345.00 2.00
C 335.44 -0.56 310.81 -1.84 315.08 10.92 C 319.34 23.69 322.65 30.75 326.68 42.32 C 330.71 53.89 333.96 63.03 338.07 73.93 C 342.19 84.82 345.04 95.23 349.22 105.78 C 353.40 116.32 356.44 126.94 360.69 137.31 C 364.95 147.68 367.09 158.29 371.69 168.31 C 376.30 178.32 377.72 190.56 383.08 199.92 C 388.44 209.29 409.45 204.90 413.75 195.75 C 418.04 186.60 424.55 177.39 429.23 168.23 C 433.91 159.07 440.03 149.94 444.75 140.75 C 449.46 131.55 455.30 123.29 460.00 114.00
C 467.25 122.85 472.32 134.85 478.68 144.32 C 485.04 153.79 489.00 166.29 495.75 175.25 C 502.49 184.21 504.55 199.57 516.00 203.00
M 405.00 164.00 
C 404.95 169.70 399.91 166.16 405.00 164.00 Z"/>
</g>
<g fill="#FEFEFE" fill-opacity="0.40" stroke="None">
<path d="
M 748.00 15.00 
C 748.13 14.89 753.10 15.67 751.00 12.00
C 705.09 12.67 658.46 10.67 613.00 13.00
C 613.00 9.33 613.00 5.67 613.00 2.00
C 663.83 1.33 715.99 3.33 766.00 1.00
C 714.67 1.00 663.33 1.00 612.00 1.00
C 612.00 5.33 612.00 9.67 612.00 14.00
C 657.16 12.54 703.61 15.51 748.00 15.00 Z"/>
</g>
<g fill="#FEFEFE" fill-opacity="0.90" stroke="None">
<path d="
M 748.00 15.00 
C 744.30 18.14 742.33 23.24 739.00 27.00
C 739.04 26.93 736.26 32.29 738.00 28.00
C 720.44 45.20 707.76 68.41 690.92 86.92 C 674.08 105.43 661.55 127.28 645.00 146.00
C 645.04 145.93 642.26 151.30 644.00 147.00
C 635.35 155.46 628.94 166.19 620.77 175.77 C 612.60 185.35 601.69 196.03 604.00 210.00
L 768.00 210.00
L 768.00 198.00
C 719.00 198.00 670.00 198.00 621.00 198.00
C 631.77 182.65 645.26 169.33 655.00 154.00
C 655.01 153.98 657.72 148.77 656.00 153.00
C 657.87 151.17 660.74 148.57 662.00 146.00
C 659.28 147.27 660.14 144.43 662.00 145.00
C 671.76 138.16 677.36 124.98 685.25 116.25 C 693.13 107.51 701.73 96.90 708.25 87.25 C 714.77 77.59 725.75 69.74 731.00 59.00
C 730.04 59.52 729.20 60.19 728.00 60.00
C 728.52 59.17 730.25 56.09 731.00 58.00
C 739.38 52.14 745.36 38.75 752.25 32.25 C 759.13 25.74 757.88 23.09 762.75 18.75 C 767.63 14.42 770.27 3.99 766.00 1.00
C 715.99 3.33 663.83 1.33 613.00 2.00
C 613.00 5.67 613.00 9.33 613.00 13.00
C 658.46 10.67 705.09 12.67 751.00 12.00
C 753.10 15.67 748.13 14.89 748.00 15.00 Z"/>
</g>
<g fill="#FFFFFF" fill-opacity="0.31" stroke="None">
<path d="
M 277.00 15.00 
C 276.45 14.44 274.30 15.60 275.29 16.63 C 276.29 17.67 277.73 15.73 277.00 15.00 Z"/>
</g>
<g fill="#000000" fill-opacity="0.00" stroke="None">
<path d="
M 50.00 127.00 
C 49.74 128.43 49.08 129.49 49.00 131.00
C 79.33 131.00 109.67 131.00 140.00 131.00
C 140.37 129.46 138.57 128.60 139.00 127.00
C 124.67 90.36 109.14 54.00 96.00 17.00
C 88.96 34.96 78.35 53.11 72.92 71.92 C 67.50 90.74 53.55 107.82 50.00 127.00 Z"/>
</g>
<g fill="#000000" fill-opacity="0.00" stroke="None">
<path d="
M 230.00 129.00 
C 230.11 133.00 242.83 130.53 249.00 131.00 C 255.17 131.47 265.85 130.78 273.00 131.00 C 280.15 131.22 289.44 130.89 297.00 131.00 C 304.56 131.11 313.33 130.91 321.00 131.00
C 320.43 130.06 319.85 129.18 320.00 128.00
C 304.51 91.52 292.23 53.02 275.00 18.00
C 267.15 35.87 261.79 56.40 252.77 73.77 C 243.76 91.14 240.40 112.58 230.00 129.00 Z"/>
</g>
<g fill="#FEFEFE" fill-opacity="0.33" stroke="None">
<path d="
M 738.00 28.00 
C 736.26 32.29 739.04 26.93 739.00 27.00
C 738.77 27.26 738.25 27.75 738.00 28.00 Z"/>
</g>
<g fill="#FEFEFE" fill-opacity="0.53" stroke="None">
<path d="
M 731.00 59.00 
C 731.00 59.00 730.77 58.16 731.00 58.00
C 730.25 56.09 728.52 59.17 728.00 60.00
C 729.20 60.19 730.04 59.52 731.00 59.00 Z"/>
</g>
<g fill="#FEFEFE" fill-opacity="0.41" stroke="None">
<path d="
M 139.00 127.00 
C 138.57 128.60 140.37 129.46 140.00 131.00
C 109.67 131.00 79.33 131.00 49.00 131.00
C 49.08 129.49 49.74 128.43 50.00 127.00
C 46.99 125.33 49.27 130.63 46.00 132.00
C 77.47 134.33 110.09 132.34 142.00 133.00
C 142.22 130.06 139.81 128.34 139.00 127.00 Z"/>
</g>
<g fill="#FEFEFE" fill-opacity="0.42" stroke="None">
<path d="
M 230.00 129.00 
C 227.74 128.63 226.51 131.07 227.00 133.00
C 259.00 133.00 291.00 133.00 323.00 133.00
C 323.09 130.22 321.16 130.14 320.00 128.00
C 319.85 129.18 320.43 130.06 321.00 131.00
C 313.33 130.91 304.56 131.11 297.00 131.00 C 289.44 130.89 280.15 131.22 273.00 131.00 C 265.85 130.78 255.17 131.47 249.00 131.00 C 242.83 130.53 230.11 133.00 230.00 129.00 Z"/>
</g>
<g fill="#000000" fill-opacity="0.00" stroke="None">
<path d="
M 16.00 210.00 
L 172.00 210.00
C 164.49 187.69 153.74 166.32 146.00 144.00
C 111.67 144.00 77.33 144.00 43.00 144.00
C 34.69 166.32 24.84 187.90 16.00 210.00 Z"/>
</g>
<g fill="#000000" fill-opacity="0.00" stroke="None">
<path d="
M 197.00 210.00 
L 353.00 210.00
C 344.40 187.87 335.28 165.80 326.00 144.00
C 313.10 143.62 299.86 144.51 287.00 144.00 C 274.14 143.49 260.74 144.98 248.00 144.00 C 235.26 143.02 222.56 142.48 219.77 154.77 C 216.99 167.06 211.47 171.46 208.31 182.31 C 205.14 193.15 199.51 199.30 197.00 210.00 Z"/>
</g>
<g fill="#FFFFFF" fill-opacity="0.45" stroke="None">
<path d="
M 662.00 146.00 
C 662.00 146.00 661.77 145.16 662.00 145.00
C 660.14 144.43 659.28 147.27 662.00 146.00 Z"/>
</g>
<g fill="#FEFEFE" fill-opacity="0.32" stroke="None">
<path d="
M 644.00 147.00 
C 642.26 151.30 645.04 145.93 645.00 146.00
C 644.77 146.26 644.25 146.75 644.00 147.00 Z"/>
</g>
<g fill="#FEFEFE" fill-opacity="0.43" stroke="None">
<path d="
M 655.00 154.00 
C 655.17 153.73 655.75 153.25 656.00 153.00
C 657.72 148.77 655.01 153.98 655.00 154.00 Z"/>
</g>
<g fill="#FEFEFE" fill-opacity="0.55" stroke="None">
<path d="
M 405.00 164.00 
C 399.91 166.16 404.95 169.70 405.00 164.00 Z"/>
</g>
<g fill="#FEFEFE" fill-opacity="0.62" stroke="None">
<path d="
M 183.00 198.00 
C 183.09 202.84 188.09 198.84 183.00 198.00 Z"/>
</g>
<g fill="#FEFEFE" fill-opacity="0.39" stroke="None">
<path d="
M 516.00 203.00 
C 521.75 204.72 538.03 206.97 536.00 199.00
C 534.53 199.27 535.11 201.00 535.00 202.00
C 529.10 200.52 520.58 203.54 516.00 203.00 Z"/>
</g>
</svg>